# Blender 4.1.1
# www.blender.org
mtllib Combat_Tile_Prefab.mtl
o Cube
v -0.500000 -0.003891 0.500000
v -0.448756 0.099912 0.448756
v -0.500000 -0.003891 -0.500000
v -0.448756 0.099912 -0.448756
v 0.500000 -0.003891 0.500000
v 0.448756 0.099912 0.448756
v 0.500000 -0.003891 -0.500000
v 0.448756 0.099912 -0.448756
v -0.489112 0.051699 0.489112
v -0.489112 0.051699 -0.489112
v 0.489112 0.051699 -0.489112
v 0.489112 0.051699 0.489112
vn -0.7668 0.6419 -0.0000
vn -0.0000 0.6419 -0.7668
vn 0.7668 0.6419 -0.0000
vn -0.0000 0.6419 0.7668
vn -0.0000 -1.0000 -0.0000
vn -0.0000 1.0000 -0.0000
vn -0.0000 0.1922 0.9814
vn 0.9814 0.1922 -0.0000
vn -0.0000 0.1922 -0.9814
vn -0.9814 0.1922 -0.0000
vt 0.508883 0.000000
vt 0.625000 0.000000
vt 0.625000 0.250000
vt 0.508883 0.250000
vt 0.625000 0.500000
vt 0.508883 0.500000
vt 0.625000 0.750000
vt 0.508883 0.750000
vt 0.625000 1.000000
vt 0.508883 1.000000
vt 0.125000 0.500000
vt 0.375000 0.500000
vt 0.375000 0.750000
vt 0.125000 0.750000
vt 0.875000 0.500000
vt 0.875000 0.750000
vt 0.375000 1.000000
vt 0.375000 0.250000
vt 0.375000 0.000000
s 0
usemtl Material.001
f 3/11/5 7/12/5 5/13/5 1/14/5
f 5/13/7 12/8/7 9/10/7 1/17/7
f 7/12/8 11/6/8 12/8/8 5/13/8
f 3/18/9 10/4/9 11/6/9 7/12/9
f 1/19/10 9/1/10 10/4/10 3/18/10
usemtl Material.002
f 9/1/1 2/2/1 4/3/1 10/4/1
f 10/4/2 4/3/2 8/5/2 11/6/2
f 11/6/3 8/5/3 6/7/3 12/8/3
f 12/8/4 6/7/4 2/9/4 9/10/4
f 8/5/6 4/15/6 2/16/6 6/7/6
